<svg version="1.1" id="Layer_1" xmlns="http://www.w3.org/2000/svg" xmlns:xlink="http://www.w3.org/1999/xlink" x="0px" y="0px"
	 width="100%" viewBox="0 0 1024 576" enable-background="new 0 0 1024 576" xml:space="preserve">
<path fill="#000000" opacity="1.000000" stroke="none" 
	d="
M675.000000,577.000000 
	C450.000000,577.000000 225.500000,577.000000 1.000000,577.000000 
	C1.000000,385.000000 1.000000,193.000000 1.000000,1.000000 
	C342.333344,1.000000 683.666687,1.000000 1025.000000,1.000000 
	C1025.000000,193.000000 1025.000000,385.000000 1025.000000,577.000000 
	C908.500000,577.000000 792.000000,577.000000 675.000000,577.000000 
M594.184448,376.148193 
	C594.184448,376.148193 593.870117,375.905121 593.567322,375.205566 
	C592.033875,374.804718 590.495117,374.036835 588.967896,374.059296 
	C572.249084,374.305115 575.490845,371.414185 574.925476,387.763794 
	C574.763367,392.450806 576.131348,394.629852 581.050720,394.028748 
	C585.360413,393.502106 589.700378,392.907410 594.026184,392.913483 
	C598.735962,392.920105 603.444214,393.863922 608.154236,393.873993 
	C611.964050,393.882111 614.902405,392.238770 614.986572,387.678131 
	C615.075500,382.855713 612.073730,381.385406 608.014404,381.053040 
	C606.382507,380.919373 604.730469,381.031006 603.087585,381.031006 
	C613.904724,379.310303 613.904724,379.310303 614.257812,374.286316 
	C607.561584,374.294922 600.796692,372.424500 594.184448,376.148193 
M418.005585,380.003174 
	C418.005585,380.003174 418.032623,380.029877 418.116699,379.261169 
	C418.627075,377.071381 420.084717,374.194061 416.098877,374.131531 
	C404.778442,373.953796 393.452515,373.997986 382.132111,374.172638 
	C381.120972,374.188263 379.453979,375.696625 379.327789,376.671722 
	C379.202026,377.643280 380.540833,379.660400 381.397980,379.754272 
	C385.010132,380.150024 385.062561,382.493805 385.003448,385.124451 
	C384.973511,386.455933 384.988403,387.789124 385.013519,389.120972 
	C385.057831,391.471436 384.781494,394.046509 388.390533,393.910889 
	C391.714783,393.785919 392.222382,391.367432 391.849915,388.993256 
	C390.867950,382.734009 393.087708,379.162933 399.810059,378.633850 
	C399.872589,379.948120 399.976685,381.261688 399.991089,382.576263 
	C400.117371,394.077301 400.116119,394.210632 411.852478,393.903198 
	C414.573914,393.831940 417.262665,392.511627 420.757019,391.548065 
	C422.068604,392.044525 424.567841,393.624420 427.181915,393.845337 
	C432.293732,394.277405 437.479706,394.118134 442.611389,393.810486 
	C443.772217,393.740875 445.559937,392.215210 445.795288,391.094391 
	C446.289459,388.740906 446.692413,386.448578 449.570923,387.222351 
	C450.950348,387.593201 451.869873,389.611572 453.040070,390.843597 
	C454.026154,391.881775 455.073456,392.861786 456.093628,393.867584 
	C457.046753,392.788696 458.734314,391.766235 458.822296,390.620880 
	C459.152893,386.316559 459.149933,381.958984 458.846924,377.651215 
	C458.760864,376.428253 457.231140,375.306793 456.363525,374.138824 
	C455.246887,375.222015 454.128143,376.303101 453.014099,377.388885 
	C451.800659,378.571533 450.591644,379.758667 449.380737,380.943878 
	C448.245544,379.678558 447.202118,378.311981 445.949097,377.176697 
	C444.720245,376.063354 443.401947,374.828003 441.894409,374.305847 
	C440.424988,373.796844 438.666138,374.080353 437.034760,374.089661 
	C430.093079,374.129181 422.494476,372.071625 418.005585,380.003174 
M330.509705,325.585968 
	C329.745239,323.495300 328.980774,321.404633 328.216309,319.313965 
	C326.877930,320.023102 324.641418,320.500458 324.386322,321.489105 
	C323.838562,323.611877 322.768127,326.752502 326.988098,327.958771 
	C326.988098,349.839752 326.988098,371.720764 326.988098,393.772644 
	C338.641235,393.772644 349.704926,393.772644 361.668518,393.772644 
	C360.516296,390.915131 359.675293,388.517487 358.600403,386.229706 
	C356.475922,381.707764 354.131256,377.288483 352.041077,372.751434 
	C348.063171,364.116821 344.306763,355.379059 340.255920,346.779510 
	C336.970917,339.805786 333.389465,332.971649 330.509705,325.585968 
M266.153900,302.429230 
	C267.645905,299.733887 266.952881,297.377777 264.209656,296.475922 
	C262.990723,296.075226 261.164917,297.520325 259.614594,298.127563 
	C260.392761,300.095276 261.170959,302.062958 261.991791,304.963348 
	C262.160889,334.492584 262.329987,364.021851 262.500244,393.753418 
	C278.250610,393.753418 292.971039,393.753418 308.275421,393.753418 
	C306.045319,388.979675 303.994202,384.630371 301.977905,380.264923 
	C297.295563,370.127228 292.688171,359.954468 287.944153,349.845825 
	C280.622070,334.243835 273.211151,318.683594 266.153900,302.429230 
M193.269379,261.510071 
	C195.765121,258.956787 197.945343,256.363922 196.189789,252.382187 
	C194.190125,247.846817 190.418915,246.012665 186.094833,247.281143 
	C183.731628,247.974396 181.005402,250.692413 180.291702,253.055679 
	C178.880829,257.727356 181.074158,261.424072 185.998001,263.983337 
	C185.495712,307.239594 184.993408,350.495880 184.492340,393.646545 
	C204.053177,393.646545 223.402161,393.646545 243.075882,393.646545 
	C241.282089,389.419556 239.516922,385.660217 238.071472,381.781738 
	C232.926163,367.975647 228.050293,354.067200 222.761932,340.316925 
	C218.423279,329.035980 213.472839,317.990692 209.113464,306.717224 
	C205.747253,298.012085 202.937027,289.093506 199.765274,280.311096 
	C197.557663,274.198395 195.156311,268.155640 193.269379,261.510071 
M487.223511,350.265472 
	C487.223511,350.265472 487.525665,350.575317 487.241547,351.194122 
	C485.186218,354.438080 483.130859,357.682068 480.726562,361.476807 
	C497.321381,361.476807 512.810181,361.476807 528.606079,361.476807 
	C528.285217,360.288574 528.272217,359.563690 527.928772,359.067474 
	C519.634399,347.083282 511.446716,335.020752 502.903687,323.215576 
	C499.947357,319.130371 491.546997,319.187317 488.149902,323.038330 
	C485.311707,326.255798 482.879639,329.841278 480.371429,333.338135 
	C474.132294,342.036621 467.952423,350.777588 461.289764,360.146912 
	C455.675232,354.358704 450.385681,348.905579 444.958679,343.310730 
	C445.845917,342.740753 446.363556,342.313019 446.953491,342.043762 
	C454.427246,338.632263 457.809448,332.461792 457.911835,324.617676 
	C458.016144,316.628632 454.437378,309.994232 446.919617,307.226166 
	C440.515594,304.868134 433.485291,303.625641 426.646912,303.171631 
	C416.694702,302.510895 406.666046,302.987396 396.670013,303.005554 
	C389.789124,303.018036 380.419495,312.072479 379.653809,319.997009 
	C381.667847,319.997009 383.623230,319.996826 385.578613,319.997009 
	C398.906708,319.998291 412.235260,319.940002 425.562469,320.049438 
	C428.352386,320.072327 431.280609,320.306946 433.870911,321.221008 
	C435.440979,321.775085 437.008698,323.646606 437.550262,325.269135 
	C437.834473,326.120728 436.164398,328.301361 434.923401,328.842987 
	C432.416901,329.936890 429.608582,330.870087 426.911377,330.907471 
	C412.586395,331.106018 398.257263,331.020081 383.929626,330.997742 
	C381.268860,330.993591 378.920166,330.982544 378.984497,334.762756 
	C379.117645,342.590637 378.943298,350.424103 379.110779,358.250671 
	C379.136505,359.452606 380.271423,361.633820 380.956726,361.659363 
	C386.256378,361.856567 391.695801,362.200623 396.781281,361.084198 
	C397.849152,360.849762 397.633759,354.766998 398.006683,351.378845 
	C398.024841,351.213989 398.026764,351.044922 398.014282,350.879486 
	C397.808655,348.151428 399.009277,346.949249 401.801178,346.992462 
	C407.963867,347.087799 414.132568,346.913391 420.290466,347.110870 
	C421.802673,347.159332 423.654846,347.837341 424.706299,348.877411 
	C427.639099,351.778473 429.992920,355.289490 433.047791,358.033783 
	C435.045166,359.828094 437.827332,361.726532 440.323303,361.819275 
	C451.303772,362.227295 462.309875,361.884155 473.302429,362.067230 
	C476.382202,362.118530 478.119293,360.864075 479.800385,358.517883 
	C481.961639,355.501556 484.540680,352.784576 487.223511,350.265472 
M306.983673,284.481262 
	C300.175476,291.087524 293.367279,297.693756 286.559052,304.300018 
	C287.052734,305.016235 287.546387,305.732452 288.040039,306.448669 
	C290.939087,305.234894 294.222717,304.539642 296.673676,302.721771 
	C310.766296,292.269470 324.718781,281.625092 338.599823,270.891968 
	C345.556213,265.513153 352.395660,259.962585 359.008484,254.170593 
	C361.454254,252.028366 363.030823,248.916168 365.123260,246.343521 
	C369.557129,240.891968 374.099121,235.528229 378.519257,230.065781 
	C379.219849,229.199936 379.666748,228.049744 379.975494,226.958740 
	C381.978851,219.879486 383.462006,212.617477 385.959137,205.720779 
	C391.476288,190.483353 389.630737,176.335892 380.210083,163.384262 
	C369.621490,148.826950 353.772186,142.893265 337.108368,139.165939 
	C328.435791,137.226089 319.416290,136.290390 310.519745,136.022827 
	C296.112396,135.589554 281.641052,135.487381 267.265289,136.366547 
	C255.581589,137.081070 243.968811,139.260742 232.388199,141.175339 
	C228.746475,141.777435 224.392593,141.884079 221.728058,147.158630 
	C224.523102,147.489761 226.701477,148.113998 228.814178,147.940155 
	C245.603119,146.558609 262.228546,147.552979 278.708160,151.013504 
	C293.031860,154.021301 306.831116,158.157104 318.977783,166.915024 
	C331.200806,175.727951 339.688629,186.825623 342.359894,201.829147 
	C345.019623,216.768021 341.455750,230.879715 335.228546,244.255569 
	C328.338318,259.055695 318.982086,272.303436 306.983673,284.481262 
M254.884399,266.308990 
	C248.918900,278.886780 240.485397,289.530518 229.953232,298.611664 
	C227.626740,300.617645 225.877426,303.292999 223.862335,305.660126 
	C224.242111,306.124207 224.621887,306.588287 225.001663,307.052338 
	C226.411026,306.515106 228.006821,306.241302 229.199219,305.397491 
	C236.493637,300.235443 243.857346,295.150024 250.897064,289.653687 
	C266.287964,277.637146 280.117584,264.075897 286.987335,245.304092 
	C291.606720,232.681534 290.380859,217.897003 277.707397,208.729614 
	C262.643890,197.833374 245.177872,196.961349 227.995148,196.707886 
	C214.532867,196.509308 201.012283,199.371826 187.548904,201.115921 
	C185.573044,201.371902 183.770813,202.968063 181.888245,203.944138 
	C182.104691,204.628326 182.321152,205.312531 182.537598,205.996719 
	C188.280304,205.996719 194.027710,206.146820 199.764786,205.967072 
	C213.965271,205.522171 227.593613,208.147446 239.859360,215.227112 
	C260.942688,227.396240 264.264160,245.854507 254.884399,266.308990 
M683.987244,361.990234 
	C692.148499,361.993134 700.326477,361.682343 708.464539,362.118134 
	C713.244446,362.374115 716.283386,360.619965 718.756531,356.849426 
	C722.292480,351.458618 726.021118,346.194611 729.605774,340.835144 
	C730.485413,339.519928 731.125732,338.044647 731.876099,336.642975 
	C732.470032,337.038513 733.064026,337.434082 733.657959,337.829620 
	C735.927673,341.575073 738.197327,345.320557 741.346191,350.516846 
	C730.031921,348.558350 722.118103,350.198608 719.450562,361.476044 
	C734.918579,361.476044 750.204651,361.476044 766.494873,361.476044 
	C765.172913,359.148804 764.416870,357.553558 763.427673,356.119049 
	C756.403015,345.932037 749.121582,335.914154 742.367798,325.551788 
	C739.314026,320.866364 735.409485,320.204987 730.508423,320.666046 
	C725.077515,321.176941 723.484436,325.811249 720.941589,329.281097 
	C713.651306,339.229126 706.594604,349.348328 699.245422,359.682343 
	C695.181580,355.989380 691.608398,352.742279 688.578796,349.989136 
	C691.022888,347.213745 693.599182,345.183105 695.008362,342.531982 
	C700.919922,331.410583 693.284424,321.700806 682.324402,321.114990 
	C673.023560,320.617889 663.675598,320.998108 654.348450,321.002228 
	C648.321594,321.004913 643.270020,325.215118 641.698425,331.999817 
	C648.445923,331.999817 655.072754,331.875244 661.692505,332.038544 
	C667.152466,332.173279 672.621521,332.490326 678.046692,333.087799 
	C679.352295,333.231567 680.500366,334.805603 681.720886,335.721893 
	C680.560974,337.047119 679.615417,338.739380 678.173462,339.581604 
	C677.018433,340.256226 675.260681,339.980530 673.769958,339.985413 
	C664.276367,340.016571 654.782227,340.058563 645.289185,339.982544 
	C642.484619,339.960114 640.887512,340.716034 640.981812,343.897705 
	C641.124634,348.723572 640.780884,353.577393 641.189453,358.372833 
	C641.299011,359.658325 643.192688,361.232788 644.621887,361.840088 
	C646.035828,362.440887 647.914429,361.839935 649.559998,362.025421 
	C653.563171,362.476685 655.591736,361.060455 655.009216,356.787659 
	C654.500488,353.056213 656.239807,351.626526 659.881042,351.973053 
	C661.696411,352.145813 663.571838,352.208313 665.368835,351.955963 
	C670.502075,351.234985 674.190674,352.966949 677.126831,357.359833 
	C678.453186,359.344299 681.077454,360.461243 683.987244,361.990234 
M822.977295,338.501648 
	C822.980103,344.826141 823.128784,351.155243 822.928528,357.473297 
	C822.816467,361.007874 824.219360,362.103546 827.611816,362.045685 
	C836.596558,361.892395 845.685059,361.167236 854.546021,362.227051 
	C863.941040,363.350739 867.222351,357.671906 871.383911,349.899353 
	C859.495789,349.899353 848.448181,349.899353 837.400635,349.899353 
	C837.279236,349.127136 837.157776,348.354919 837.036377,347.582703 
	C838.599304,347.058929 840.145935,346.149872 841.728149,346.083344 
	C846.546326,345.880707 851.378235,346.011597 856.204773,345.996796 
	C862.934082,345.976135 866.652588,342.910706 868.456238,335.980194 
	C859.222839,335.980194 849.968628,336.047424 840.717957,335.894653 
	C839.568848,335.875702 838.438965,334.689270 837.300171,334.043823 
	C838.409668,333.369934 839.494507,332.167145 840.632935,332.114044 
	C845.449341,331.889374 850.372803,331.409607 855.088318,332.129303 
	C863.648315,333.435760 866.984924,327.917511 870.606262,321.902283 
	C869.861572,321.545563 869.438721,321.167084 869.014343,321.165253 
	C854.703674,321.103577 840.391968,321.005402 826.084167,321.196686 
	C825.043274,321.210571 823.254028,323.295349 823.146240,324.533447 
	C822.772156,328.828827 822.986816,333.175476 822.977295,338.501648 
M820.270874,351.839020 
	C819.052063,351.229156 817.849609,350.134430 816.611572,350.092560 
	C810.952515,349.901062 805.283142,350.032318 799.618042,349.985321 
	C797.965332,349.971649 796.314331,349.752197 793.551086,349.542877 
	C795.237793,348.098328 795.837402,347.543488 796.478699,347.041901 
	C802.728516,342.153961 808.987671,337.278015 815.238892,332.391785 
	C817.691467,330.474731 819.831726,328.272034 818.688599,324.852936 
	C817.564331,321.490417 814.826172,320.892029 811.515320,320.945343 
	C801.686584,321.103699 791.853638,320.999146 782.022339,321.000488 
	C772.107422,321.001831 771.681091,321.305542 767.363525,331.997437 
	C775.929932,331.997437 784.187927,331.997437 792.445984,331.997437 
	C790.219177,335.128082 787.820618,337.147980 785.370178,339.102814 
	C780.717651,342.814423 775.686768,346.142853 771.525574,350.337341 
	C769.687500,352.190155 768.731873,355.824127 768.910217,358.549011 
	C769.148132,362.184753 772.741943,361.992218 775.604004,361.993622 
	C786.601746,361.999023 797.603088,361.835022 808.595337,362.080292 
	C812.527039,362.168060 814.778381,360.137421 816.823059,357.446045 
	C817.999329,355.897644 818.898193,354.138550 820.270874,351.839020 
M563.768005,374.425903 
	C557.209229,374.022217 550.389587,372.210602 544.946655,378.288513 
	C544.032227,377.544891 543.344604,376.857178 542.541931,376.352692 
	C533.100769,370.418610 523.978821,374.214294 521.978516,385.053680 
	C521.260742,388.943146 518.444275,387.857666 516.177490,387.946472 
	C513.940247,388.034119 511.192078,388.486511 511.077332,384.886627 
	C510.992462,382.224487 511.228943,379.517914 510.798584,376.917816 
	C510.625244,375.870850 509.093475,374.383942 508.107758,374.325989 
	C507.149780,374.269714 505.798553,375.610138 505.179535,376.665436 
	C504.630096,377.602081 504.848480,378.989136 504.674805,380.700806 
	C499.179962,372.190826 490.108856,371.509399 482.350311,377.856720 
	C480.636871,376.516388 479.110138,375.322083 477.583405,374.127808 
	C476.326233,376.437988 475.069092,378.748138 473.689636,381.283020 
	C472.343506,379.680420 470.920776,377.377472 468.919769,375.815125 
	C467.549377,374.745178 465.373474,374.362152 463.558289,374.363892 
	C462.748810,374.364655 461.290985,376.034210 461.242218,377.002563 
	C460.999695,381.816254 460.976868,386.657806 461.267334,391.465942 
	C461.319122,392.323181 463.152466,393.560577 464.275330,393.696625 
	C465.044128,393.789703 466.518555,392.413635 466.774200,391.453827 
	C467.262970,389.618408 467.107635,387.611450 467.306854,384.167664 
	C470.129791,387.954498 471.817078,391.006439 474.247498,393.255341 
	C476.657440,395.485413 480.241119,393.621704 481.781403,389.820007 
	C486.236206,393.938934 488.128510,394.924774 495.873505,393.763580 
	C499.136993,393.274323 502.049255,390.442261 504.815918,388.850769 
	C503.886627,393.627472 507.207489,394.598541 511.674774,393.967834 
	C515.469666,393.432098 519.217957,392.572632 523.004578,391.966980 
	C523.685852,391.858002 524.465393,392.247070 525.178772,392.472076 
	C532.187561,394.682770 539.055054,395.744659 545.122131,389.748627 
	C550.228638,396.225311 557.075195,394.131958 563.247192,393.254120 
	C564.321350,393.101349 564.633728,387.498688 565.249878,384.403625 
	C565.297974,384.162079 564.965088,383.844696 564.135498,382.342590 
	C562.302185,383.672302 560.691895,385.114990 558.838501,386.100250 
	C557.271545,386.933228 555.213867,387.962158 553.765015,387.544830 
	C552.601746,387.209747 551.254944,384.745544 551.415833,383.396210 
	C551.562561,382.166138 553.462708,380.637451 554.886780,380.194458 
	C556.715881,379.625458 558.842773,379.948914 560.838867,379.995911 
	C564.565125,380.083649 565.629517,378.350220 563.768005,374.425903 
M580.998230,326.692871 
	C581.769287,321.896759 579.397339,320.761169 575.021973,320.921906 
	C568.024353,321.178955 568.013123,320.961090 568.001770,328.144348 
	C567.995056,332.374725 568.000549,336.605072 568.000549,342.069763 
	C565.233582,339.950958 563.497864,338.760345 561.919678,337.388489 
	C556.186096,332.404419 550.835876,326.884827 544.641174,322.572479 
	C542.178223,320.858002 537.730042,321.077545 534.509766,321.820801 
	C533.223206,322.117737 532.181824,326.186035 532.112366,328.569183 
	C531.840759,337.884918 532.299866,347.226501 531.886353,356.531769 
	C531.655212,361.730865 534.169373,362.195801 538.209900,362.059906 
	C542.000488,361.932434 545.660034,362.532104 545.104004,356.632507 
	C544.650879,351.824768 545.011902,346.940277 545.011902,342.089844 
	C545.479004,341.953430 545.946106,341.817017 546.413269,341.680634 
	C552.742065,347.419373 559.181824,353.042023 565.356262,358.942413 
	C568.815735,362.248383 572.761902,362.892731 576.828674,361.357605 
	C580.576111,359.943024 581.114990,356.378693 581.046570,352.620605 
	C580.895020,344.298645 580.999390,335.972046 580.998230,326.692871 
M612.253357,324.661224 
	C608.855103,327.577057 605.456787,330.492920 601.503479,333.885040 
	C601.217224,332.048676 601.055786,331.410614 601.026672,330.766571 
	C600.565125,320.568970 600.572144,320.693787 590.587646,320.941498 
	C587.142029,321.026917 585.868530,322.239685 585.925293,325.671936 
	C586.068542,334.334595 585.866272,343.002716 585.987122,351.666046 
	C586.147278,363.150574 583.935486,361.890747 596.884338,362.019684 
	C599.856812,362.049225 601.160583,360.970886 601.016968,357.937103 
	C600.872314,354.883026 600.985107,351.816742 600.985107,347.343536 
	C607.348022,352.830353 611.804016,358.903076 617.710815,361.133453 
	C623.512024,363.323944 630.787231,361.610901 637.415649,361.610901 
	C637.536316,361.161041 637.656982,360.711151 637.777710,360.261292 
	C629.652222,353.606201 621.526794,346.951141 613.104919,340.053284 
	C621.146118,333.925018 628.557373,328.276855 635.968567,322.628693 
	C635.671265,322.066803 635.373901,321.504913 635.076538,320.943024 
	C627.685791,322.284302 619.659058,318.057129 612.253357,324.661224 
M636.106262,374.011200 
	C633.440735,374.021790 630.665588,373.581879 628.146484,374.194580 
	C626.338562,374.634308 623.696777,376.298950 623.474609,377.734161 
	C622.803894,382.066772 622.998962,386.559387 623.175293,390.976929 
	C623.214111,391.949554 624.523865,393.591461 625.327881,393.641296 
	C626.473083,393.712219 627.786560,392.727295 628.852234,391.951752 
	C629.924561,391.171356 630.643738,389.519501 631.758057,389.252563 
	C635.680176,388.312988 639.705566,387.804413 643.753357,387.121948 
	C643.757568,387.135223 643.852417,387.448334 643.956970,387.758118 
	C644.636414,389.770691 644.754150,392.840942 646.119385,393.568268 
	C648.742554,394.965637 650.582825,393.019867 651.604980,390.220428 
	C651.804138,389.675049 655.111389,389.420349 655.324097,389.851440 
	C658.226929,395.731934 663.536072,393.642700 668.094421,393.961578 
	C670.827087,394.152740 672.043945,392.826233 671.992004,390.094788 
	C671.920898,386.360291 671.974243,382.623444 671.974243,378.887634 
	C674.655945,382.452728 676.410583,386.165649 678.382507,389.759369 
	C681.510254,395.459564 684.027893,395.601440 688.530701,390.142822 
	C688.230652,394.531128 691.228455,394.952484 693.514832,393.587128 
	C697.918762,390.957092 701.790649,391.650482 706.055176,393.520142 
	C707.197815,394.021118 709.086121,393.684326 710.196716,393.012512 
	C710.711975,392.700836 710.524414,390.522522 710.069214,389.436005 
	C708.284241,385.175018 706.280090,381.005219 704.329041,376.814697 
	C703.020691,374.004669 700.850952,373.605194 698.087097,374.501312 
	C697.018005,374.847870 695.566040,375.193268 694.689758,374.748596 
	C691.105835,372.929962 688.997192,374.595612 687.354248,377.488586 
	C686.036194,379.809570 684.900146,382.233887 683.935059,384.120361 
	C681.093506,380.522888 679.156006,375.838654 675.871399,374.526367 
	C672.444824,373.157349 667.077576,372.062134 664.014282,376.864136 
	C662.925964,376.051056 661.997131,374.762177 661.088806,374.776489 
	C655.766663,374.859924 650.449402,375.250000 645.130127,375.531494 
	C644.132385,375.584290 643.088196,375.818146 642.144714,375.609680 
	C640.392029,375.222382 638.697876,374.570709 636.106262,374.011200 
M834.993591,381.296051 
	C835.352478,396.080566 832.399902,393.764221 848.094971,393.997009 
	C848.261536,393.999481 848.429016,393.981476 848.594666,393.992950 
	C852.226379,394.244904 853.737793,392.509796 853.435486,388.394745 
	C849.948120,388.168732 846.509583,387.945862 843.071045,387.723022 
	C844.921326,386.960205 846.819885,387.307617 848.496460,386.846893 
	C849.765381,386.498138 850.750916,385.118103 851.862549,384.197052 
	C850.716187,383.141815 849.688538,381.886536 848.377563,381.108948 
	C847.632812,380.667236 846.420776,381.054016 845.425720,380.980072 
	C844.664368,380.923492 843.913147,380.729645 842.861572,380.544891 
	C846.697815,378.680054 853.239807,382.884064 853.577759,374.377533 
	C851.536011,374.239410 849.764099,374.023621 847.991211,374.015961 
	C839.493164,373.979248 830.994995,373.998749 822.496826,373.998535 
	C806.419495,373.998138 806.359497,374.004761 808.147766,390.296783 
	C808.288269,391.576477 810.071777,392.675812 811.091675,393.858978 
	C812.048523,392.598358 813.554810,391.449890 813.840210,390.052185 
	C814.331787,387.644470 813.779907,385.026093 814.252380,382.610870 
	C814.443665,381.632782 816.107300,380.462006 817.226074,380.311920 
	C817.995972,380.208679 819.563599,381.592285 819.751770,382.519043 
	C820.175659,384.606873 819.950745,386.824097 820.013977,388.987946 
	C820.166504,394.214600 821.049255,394.757233 826.883545,392.845490 
	C826.883545,391.004547 827.281189,388.924316 826.810486,387.063721 
	C825.276611,380.999969 829.934875,380.128815 833.708801,378.524902 
	C833.827637,378.474426 834.543884,379.829468 834.993591,381.296051 
M720.005249,384.746613 
	C719.590698,379.588837 722.695984,379.604370 726.997009,380.372803 
	C726.997009,383.701355 726.710388,387.021515 727.135132,390.248047 
	C727.310242,391.578552 728.922302,393.652863 730.038574,393.761139 
	C734.322388,394.176483 738.681274,394.098480 742.985779,393.810394 
	C743.997681,393.742676 745.822021,391.908630 745.667664,391.282867 
	C745.367065,390.063721 744.079102,388.466980 742.934509,388.210297 
	C740.761414,387.722931 738.401367,388.069183 735.278198,388.069183 
	C738.856384,385.629700 744.507629,389.463104 744.597229,384.117310 
	C744.695312,378.267029 738.595154,382.619354 735.392822,379.959808 
	C738.237061,379.959808 740.545715,380.271759 742.703613,379.836334 
	C743.892029,379.596527 744.826904,378.100342 745.876099,377.170563 
	C744.879333,376.135651 743.899048,374.219971 742.883179,374.200897 
	C731.577026,373.988525 720.264221,374.003571 708.957092,374.190186 
	C708.002502,374.205933 706.397644,375.852325 706.327637,376.829529 
	C706.258423,377.795685 707.754761,379.758667 708.560364,379.756531 
	C713.107666,379.744537 713.077209,382.639343 712.979431,385.824768 
	C712.923401,387.650024 712.619995,389.638977 713.225708,391.255280 
	C713.656555,392.404785 715.430298,393.750549 716.582886,393.730927 
	C717.708191,393.711792 719.372314,392.267487 719.779175,391.094696 
	C720.348633,389.453461 719.971985,387.484009 720.005249,384.746613 
M788.701294,375.627228 
	C783.921692,372.863586 781.221313,374.030884 781.047791,379.067291 
	C780.916138,382.890839 780.868469,386.736145 781.155029,390.543823 
	C781.241455,391.692596 782.436279,393.499664 783.364441,393.666779 
	C784.702637,393.907837 786.352234,393.098297 787.683716,392.389252 
	C788.279602,392.071899 788.425781,390.910126 788.860901,389.943054 
	C793.314575,395.167114 793.597412,395.122528 799.547852,388.600952 
	C799.706543,389.101349 799.740417,389.612183 799.998962,389.952179 
	C801.014282,391.287262 802.100525,392.568512 803.160400,393.869720 
	C804.100891,392.433624 805.672363,391.072601 805.853943,389.546234 
	C806.264038,386.098938 806.216309,382.548492 805.891602,379.083405 
	C805.733765,377.398529 804.535767,375.811157 803.808594,374.179626 
	C801.629150,375.335571 799.074646,376.106750 797.379211,377.759277 
	C795.788452,379.309937 795.106079,381.792542 793.760803,384.369080 
	C791.894043,381.128693 790.494934,378.700165 788.701294,375.627228 
M879.530334,307.975647 
	C878.164795,311.309235 875.533020,314.712769 875.712524,317.960968 
	C876.029968,323.705078 882.467346,328.390656 887.463013,327.911133 
	C894.203491,327.264130 896.905212,323.799225 897.047241,316.168030 
	C897.122009,312.152191 896.915466,308.425507 892.700867,306.493011 
	C888.354675,304.500153 884.092041,304.172913 879.530334,307.975647 
M865.290894,394.000275 
	C872.048706,393.821503 875.988098,390.085144 875.949524,383.891144 
	C875.911194,377.752838 871.783936,374.030396 864.983521,374.000671 
	C855.366943,373.958649 855.366943,373.958649 855.017700,384.161377 
	C854.680969,393.997467 854.680908,393.997467 865.290894,394.000275 
M775.002258,374.620483 
	C774.668030,376.862854 774.100952,379.099243 774.043335,381.348694 
	C773.872742,388.010651 773.951355,388.012634 767.387085,388.000763 
	C761.043579,387.989288 761.043579,387.989319 760.997253,381.120209 
	C760.990540,380.123199 761.322754,378.943787 760.904968,378.168457 
	C760.115845,376.703827 758.895386,375.471588 757.854126,374.142792 
	C756.909790,375.402985 755.274170,376.599548 755.151184,377.935394 
	C754.786926,381.889984 755.100220,385.901764 754.992676,389.886963 
	C754.911865,392.878784 756.239319,394.063507 759.175049,394.007233 
	C765.209595,393.891510 771.255005,394.070435 777.274841,393.741577 
	C778.227112,393.689545 779.752319,391.668915 779.839172,390.473175 
	C780.151428,386.175781 779.942932,381.841736 779.966125,377.521698 
	C779.981934,374.574188 778.409790,373.750275 775.002258,374.620483 
M572.066833,374.369720 
	C569.654419,373.930206 567.178467,373.572845 567.093872,377.119812 
	C566.983765,381.736816 566.915588,386.367798 567.192627,390.970917 
	C567.253845,391.987396 568.839111,393.697876 569.719482,393.695953 
	C571.055847,393.693024 573.540100,392.474884 573.542114,391.767181 
	C573.558472,386.110718 573.104736,380.452881 572.066833,374.369720 
z"/>
<path fill="#123B5C" opacity="1.000000" stroke="none" 
	d="
M307.218964,284.213318 
	C318.982086,272.303436 328.338318,259.055695 335.228546,244.255569 
	C341.455750,230.879715 345.019623,216.768021 342.359894,201.829147 
	C339.688629,186.825623 331.200806,175.727951 318.977783,166.915024 
	C306.831116,158.157104 293.031860,154.021301 278.708160,151.013504 
	C262.228546,147.552979 245.603119,146.558609 228.814178,147.940155 
	C226.701477,148.113998 224.523102,147.489761 221.728058,147.158630 
	C224.392593,141.884079 228.746475,141.777435 232.388199,141.175339 
	C243.968811,139.260742 255.581589,137.081070 267.265289,136.366547 
	C281.641052,135.487381 296.112396,135.589554 310.519745,136.022827 
	C319.416290,136.290390 328.435791,137.226089 337.108368,139.165939 
	C353.772186,142.893265 369.621490,148.826950 380.210083,163.384262 
	C389.630737,176.335892 391.476288,190.483353 385.959137,205.720779 
	C383.462006,212.617477 381.978851,219.879486 379.975494,226.958740 
	C379.666748,228.049744 379.219849,229.199936 378.519257,230.065781 
	C374.099121,235.528229 369.557129,240.891968 365.123260,246.343521 
	C363.030823,248.916168 361.454254,252.028366 359.008484,254.170593 
	C352.395660,259.962585 345.556213,265.513153 338.599823,270.891968 
	C324.718781,281.625092 310.766296,292.269470 296.673676,302.721771 
	C294.222717,304.539642 290.939087,305.234894 288.040039,306.448669 
	C287.546387,305.732452 287.052734,305.016235 286.559052,304.300018 
	C293.367279,297.693756 300.175476,291.087524 307.218964,284.213318 
z"/>
<path fill="#0C3C5C" opacity="1.000000" stroke="none" 
	d="
M486.939789,349.938660 
	C484.540680,352.784576 481.961639,355.501556 479.800385,358.517883 
	C478.119293,360.864075 476.382202,362.118530 473.302429,362.067230 
	C462.309875,361.884155 451.303772,362.227295 440.323303,361.819275 
	C437.827332,361.726532 435.045166,359.828094 433.047791,358.033783 
	C429.992920,355.289490 427.639099,351.778473 424.706299,348.877411 
	C423.654846,347.837341 421.802673,347.159332 420.290466,347.110870 
	C414.132568,346.913391 407.963867,347.087799 401.801178,346.992462 
	C399.009277,346.949249 397.808655,348.151428 398.014282,350.879486 
	C398.026764,351.044922 398.024841,351.213989 398.006683,351.378845 
	C397.633759,354.766998 397.849152,360.849762 396.781281,361.084198 
	C391.695801,362.200623 386.256378,361.856567 380.956726,361.659363 
	C380.271423,361.633820 379.136505,359.452606 379.110779,358.250671 
	C378.943298,350.424103 379.117645,342.590637 378.984497,334.762756 
	C378.920166,330.982544 381.268860,330.993591 383.929626,330.997742 
	C398.257263,331.020081 412.586395,331.106018 426.911377,330.907471 
	C429.608582,330.870087 432.416901,329.936890 434.923401,328.842987 
	C436.164398,328.301361 437.834473,326.120728 437.550262,325.269135 
	C437.008698,323.646606 435.440979,321.775085 433.870911,321.221008 
	C431.280609,320.306946 428.352386,320.072327 425.562469,320.049438 
	C412.235260,319.940002 398.906708,319.998291 385.578613,319.997009 
	C383.623230,319.996826 381.667847,319.997009 379.653809,319.997009 
	C380.419495,312.072479 389.789124,303.018036 396.670013,303.005554 
	C406.666046,302.987396 416.694702,302.510895 426.646912,303.171631 
	C433.485291,303.625641 440.515594,304.868134 446.919617,307.226166 
	C454.437378,309.994232 458.016144,316.628632 457.911835,324.617676 
	C457.809448,332.461792 454.427246,338.632263 446.953491,342.043762 
	C446.363556,342.313019 445.845917,342.740753 444.958679,343.310730 
	C450.385681,348.905579 455.675232,354.358704 461.289764,360.146912 
	C467.952423,350.777588 474.132294,342.036621 480.371429,333.338135 
	C482.879639,329.841278 485.311707,326.255798 488.149902,323.038330 
	C491.546997,319.187317 499.947357,319.130371 502.903687,323.215576 
	C511.446716,335.020752 519.634399,347.083282 527.928772,359.067474 
	C528.272217,359.563690 528.285217,360.288574 528.606079,361.476807 
	C512.810181,361.476807 497.321381,361.476807 480.726562,361.476807 
	C483.130859,357.682068 485.186218,354.438080 487.768738,350.725403 
	C493.139709,350.256653 497.983521,350.256653 503.991730,350.256653 
	C500.593079,345.076202 498.052063,341.203033 494.815247,336.269257 
	C491.927734,341.281036 489.433777,345.609863 486.939789,349.938660 
z"/>
<path fill="#3FBC9B" opacity="1.000000" stroke="none" 
	d="
M192.841507,262.081635 
	C195.156311,268.155640 197.557663,274.198395 199.765274,280.311096 
	C202.937027,289.093506 205.747253,298.012085 209.113464,306.717224 
	C213.472839,317.990692 218.423279,329.035980 222.761932,340.316925 
	C228.050293,354.067200 232.926163,367.975647 238.071472,381.781738 
	C239.516922,385.660217 241.282089,389.419556 243.075882,393.646545 
	C223.402161,393.646545 204.053177,393.646545 184.492340,393.646545 
	C184.993408,350.495880 185.495712,307.239594 186.347412,263.362427 
	C188.745056,262.521515 190.793289,262.301575 192.841507,262.081635 
z"/>
<path fill="#123B5C" opacity="1.000000" stroke="none" 
	d="
M255.030701,265.953125 
	C264.264160,245.854507 260.942688,227.396240 239.859360,215.227112 
	C227.593613,208.147446 213.965271,205.522171 199.764786,205.967072 
	C194.027710,206.146820 188.280304,205.996719 182.537598,205.996719 
	C182.321152,205.312531 182.104691,204.628326 181.888245,203.944138 
	C183.770813,202.968063 185.573044,201.371902 187.548904,201.115921 
	C201.012283,199.371826 214.532867,196.509308 227.995148,196.707886 
	C245.177872,196.961349 262.643890,197.833374 277.707397,208.729614 
	C290.380859,217.897003 291.606720,232.681534 286.987335,245.304092 
	C280.117584,264.075897 266.287964,277.637146 250.897064,289.653687 
	C243.857346,295.150024 236.493637,300.235443 229.199219,305.397491 
	C228.006821,306.241302 226.411026,306.515106 225.001663,307.052338 
	C224.621887,306.588287 224.242111,306.124207 223.862335,305.660126 
	C225.877426,303.292999 227.626740,300.617645 229.953232,298.611664 
	C240.485397,289.530518 248.918900,278.886780 255.030701,265.953125 
z"/>
<path fill="#0C3C5C" opacity="1.000000" stroke="none" 
	d="
M683.550049,361.980988 
	C681.077454,360.461243 678.453186,359.344299 677.126831,357.359833 
	C674.190674,352.966949 670.502075,351.234985 665.368835,351.955963 
	C663.571838,352.208313 661.696411,352.145813 659.881042,351.973053 
	C656.239807,351.626526 654.500488,353.056213 655.009216,356.787659 
	C655.591736,361.060455 653.563171,362.476685 649.559998,362.025421 
	C647.914429,361.839935 646.035828,362.440887 644.621887,361.840088 
	C643.192688,361.232788 641.299011,359.658325 641.189453,358.372833 
	C640.780884,353.577393 641.124634,348.723572 640.981812,343.897705 
	C640.887512,340.716034 642.484619,339.960114 645.289185,339.982544 
	C654.782227,340.058563 664.276367,340.016571 673.769958,339.985413 
	C675.260681,339.980530 677.018433,340.256226 678.173462,339.581604 
	C679.615417,338.739380 680.560974,337.047119 681.720886,335.721893 
	C680.500366,334.805603 679.352295,333.231567 678.046692,333.087799 
	C672.621521,332.490326 667.152466,332.173279 661.692505,332.038544 
	C655.072754,331.875244 648.445923,331.999817 641.698425,331.999817 
	C643.270020,325.215118 648.321594,321.004913 654.348450,321.002228 
	C663.675598,320.998108 673.023560,320.617889 682.324402,321.114990 
	C693.284424,321.700806 700.919922,331.410583 695.008362,342.531982 
	C693.599182,345.183105 691.022888,347.213745 688.578796,349.989136 
	C691.608398,352.742279 695.181580,355.989380 699.245422,359.682343 
	C706.594604,349.348328 713.651306,339.229126 720.941589,329.281097 
	C723.484436,325.811249 725.077515,321.176941 730.508423,320.666046 
	C735.409485,320.204987 739.314026,320.866364 742.367798,325.551788 
	C749.121582,335.914154 756.403015,345.932037 763.427673,356.119049 
	C764.416870,357.553558 765.172913,359.148804 766.494873,361.476044 
	C750.204651,361.476044 734.918579,361.476044 719.450562,361.476044 
	C722.118103,350.198608 730.031921,348.558350 741.346191,350.516846 
	C738.197327,345.320557 735.927673,341.575073 733.657959,337.829620 
	C733.064026,337.434082 732.470032,337.038513 731.876099,336.642975 
	C731.125732,338.044647 730.485413,339.519928 729.605774,340.835144 
	C726.021118,346.194611 722.292480,351.458618 718.756531,356.849426 
	C716.283386,360.619965 713.244446,362.374115 708.464539,362.118134 
	C700.326477,361.682343 692.148499,361.993134 683.550049,361.980988 
z"/>
<path fill="#3FBC9B" opacity="1.000000" stroke="none" 
	d="
M265.837921,303.105621 
	C273.211151,318.683594 280.622070,334.243835 287.944153,349.845825 
	C292.688171,359.954468 297.295563,370.127228 301.977905,380.264923 
	C303.994202,384.630371 306.045319,388.979675 308.275421,393.753418 
	C292.971039,393.753418 278.250610,393.753418 262.500244,393.753418 
	C262.329987,364.021851 262.160889,334.492584 262.275269,304.347961 
	C263.651794,303.523621 264.744843,303.314606 265.837921,303.105621 
z"/>
<path fill="#0C3C5C" opacity="1.000000" stroke="none" 
	d="
M822.977417,338.002136 
	C822.986816,333.175476 822.772156,328.828827 823.146240,324.533447 
	C823.254028,323.295349 825.043274,321.210571 826.084167,321.196686 
	C840.391968,321.005402 854.703674,321.103577 869.014343,321.165253 
	C869.438721,321.167084 869.861572,321.545563 870.606262,321.902283 
	C866.984924,327.917511 863.648315,333.435760 855.088318,332.129303 
	C850.372803,331.409607 845.449341,331.889374 840.632935,332.114044 
	C839.494507,332.167145 838.409668,333.369934 837.300171,334.043823 
	C838.438965,334.689270 839.568848,335.875702 840.717957,335.894653 
	C849.968628,336.047424 859.222839,335.980194 868.456238,335.980194 
	C866.652588,342.910706 862.934082,345.976135 856.204773,345.996796 
	C851.378235,346.011597 846.546326,345.880707 841.728149,346.083344 
	C840.145935,346.149872 838.599304,347.058929 837.036377,347.582703 
	C837.157776,348.354919 837.279236,349.127136 837.400635,349.899353 
	C848.448181,349.899353 859.495789,349.899353 871.383911,349.899353 
	C867.222351,357.671906 863.941040,363.350739 854.546021,362.227051 
	C845.685059,361.167236 836.596558,361.892395 827.611816,362.045685 
	C824.219360,362.103546 822.816467,361.007874 822.928528,357.473297 
	C823.128784,351.155243 822.980103,344.826141 822.977417,338.002136 
z"/>
<path fill="#0C3C5C" opacity="1.000000" stroke="none" 
	d="
M820.096375,352.156647 
	C818.898193,354.138550 817.999329,355.897644 816.823059,357.446045 
	C814.778381,360.137421 812.527039,362.168060 808.595337,362.080292 
	C797.603088,361.835022 786.601746,361.999023 775.604004,361.993622 
	C772.741943,361.992218 769.148132,362.184753 768.910217,358.549011 
	C768.731873,355.824127 769.687500,352.190155 771.525574,350.337341 
	C775.686768,346.142853 780.717651,342.814423 785.370178,339.102814 
	C787.820618,337.147980 790.219177,335.128082 792.445984,331.997437 
	C784.187927,331.997437 775.929932,331.997437 767.363525,331.997437 
	C771.681091,321.305542 772.107422,321.001831 782.022339,321.000488 
	C791.853638,320.999146 801.686584,321.103699 811.515320,320.945343 
	C814.826172,320.892029 817.564331,321.490417 818.688599,324.852936 
	C819.831726,328.272034 817.691467,330.474731 815.238892,332.391785 
	C808.987671,337.278015 802.728516,342.153961 796.478699,347.041901 
	C795.837402,347.543488 795.237793,348.098328 793.551086,349.542877 
	C796.314331,349.752197 797.965332,349.971649 799.618042,349.985321 
	C805.283142,350.032318 810.952515,349.901062 816.611572,350.092560 
	C817.849609,350.134430 819.052063,351.229156 820.096375,352.156647 
z"/>
<path fill="#333333" opacity="1.000000" stroke="none" 
	d="
M564.095703,374.694305 
	C565.629517,378.350220 564.565125,380.083649 560.838867,379.995911 
	C558.842773,379.948914 556.715881,379.625458 554.886780,380.194458 
	C553.462708,380.637451 551.562561,382.166138 551.415833,383.396210 
	C551.254944,384.745544 552.601746,387.209747 553.765015,387.544830 
	C555.213867,387.962158 557.271545,386.933228 558.838501,386.100250 
	C560.691895,385.114990 562.302185,383.672302 564.135498,382.342590 
	C564.965088,383.844696 565.297974,384.162079 565.249878,384.403625 
	C564.633728,387.498688 564.321350,393.101349 563.247192,393.254120 
	C557.075195,394.131958 550.228638,396.225311 545.122131,389.748627 
	C539.055054,395.744659 532.187561,394.682770 525.178772,392.472076 
	C524.465393,392.247070 523.685852,391.858002 523.004578,391.966980 
	C519.217957,392.572632 515.469666,393.432098 511.674774,393.967834 
	C507.207489,394.598541 503.886627,393.627472 504.815918,388.850769 
	C502.049255,390.442261 499.136993,393.274323 495.873505,393.763580 
	C488.128510,394.924774 486.236206,393.938934 481.781403,389.820007 
	C480.241119,393.621704 476.657440,395.485413 474.247498,393.255341 
	C471.817078,391.006439 470.129791,387.954498 467.306854,384.167664 
	C467.107635,387.611450 467.262970,389.618408 466.774200,391.453827 
	C466.518555,392.413635 465.044128,393.789703 464.275330,393.696625 
	C463.152466,393.560577 461.319122,392.323181 461.267334,391.465942 
	C460.976868,386.657806 460.999695,381.816254 461.242218,377.002563 
	C461.290985,376.034210 462.748810,374.364655 463.558289,374.363892 
	C465.373474,374.362152 467.549377,374.745178 468.919769,375.815125 
	C470.920776,377.377472 472.343506,379.680420 473.689636,381.283020 
	C475.069092,378.748138 476.326233,376.437988 477.583405,374.127808 
	C479.110138,375.322083 480.636871,376.516388 482.350311,377.856720 
	C490.108856,371.509399 499.179962,372.190826 504.674805,380.700806 
	C504.848480,378.989136 504.630096,377.602081 505.179535,376.665436 
	C505.798553,375.610138 507.149780,374.269714 508.107758,374.325989 
	C509.093475,374.383942 510.625244,375.870850 510.798584,376.917816 
	C511.228943,379.517914 510.992462,382.224487 511.077332,384.886627 
	C511.192078,388.486511 513.940247,388.034119 516.177490,387.946472 
	C518.444275,387.857666 521.260742,388.943146 521.978516,385.053680 
	C523.978821,374.214294 533.100769,370.418610 542.541931,376.352692 
	C543.344604,376.857178 544.032227,377.544891 544.946655,378.288513 
	C550.389587,372.210602 557.209229,374.022217 564.095703,374.694305 
M537.267883,380.998779 
	C534.273010,379.791107 531.024414,378.460907 529.372742,382.541290 
	C528.861877,383.803284 529.729797,386.885803 530.638855,387.201996 
	C532.638733,387.897736 535.360657,387.963531 537.195251,387.069916 
	C538.093445,386.632446 537.667542,383.476624 537.267883,380.998779 
M490.998108,380.137970 
	C490.109741,381.826660 488.848450,383.447357 488.522003,385.238434 
	C488.396606,385.926636 490.294678,387.570923 491.456909,387.789490 
	C494.246918,388.314178 497.458527,388.391510 497.756836,384.419800 
	C498.074127,380.194153 495.045532,379.795349 490.998108,380.137970 
z"/>
<path fill="#0C3C5C" opacity="1.000000" stroke="none" 
	d="
M580.998840,327.170105 
	C580.999390,335.972046 580.895020,344.298645 581.046570,352.620605 
	C581.114990,356.378693 580.576111,359.943024 576.828674,361.357605 
	C572.761902,362.892731 568.815735,362.248383 565.356262,358.942413 
	C559.181824,353.042023 552.742065,347.419373 546.413269,341.680634 
	C545.946106,341.817017 545.479004,341.953430 545.011902,342.089844 
	C545.011902,346.940277 544.650879,351.824768 545.104004,356.632507 
	C545.660034,362.532104 542.000488,361.932434 538.209900,362.059906 
	C534.169373,362.195801 531.655212,361.730865 531.886353,356.531769 
	C532.299866,347.226501 531.840759,337.884918 532.112366,328.569183 
	C532.181824,326.186035 533.223206,322.117737 534.509766,321.820801 
	C537.730042,321.077545 542.178223,320.858002 544.641174,322.572479 
	C550.835876,326.884827 556.186096,332.404419 561.919678,337.388489 
	C563.497864,338.760345 565.233582,339.950958 568.000549,342.069763 
	C568.000549,336.605072 567.995056,332.374725 568.001770,328.144348 
	C568.013123,320.961090 568.024353,321.178955 575.021973,320.921906 
	C579.397339,320.761169 581.769287,321.896759 580.998840,327.170105 
z"/>
<path fill="#0B3C5C" opacity="1.000000" stroke="none" 
	d="
M612.534180,324.423157 
	C619.659058,318.057129 627.685791,322.284302 635.076538,320.943024 
	C635.373901,321.504913 635.671265,322.066803 635.968567,322.628693 
	C628.557373,328.276855 621.146118,333.925018 613.104919,340.053284 
	C621.526794,346.951141 629.652222,353.606201 637.777710,360.261292 
	C637.656982,360.711151 637.536316,361.161041 637.415649,361.610901 
	C630.787231,361.610901 623.512024,363.323944 617.710815,361.133453 
	C611.804016,358.903076 607.348022,352.830353 600.985107,347.343536 
	C600.985107,351.816742 600.872314,354.883026 601.016968,357.937103 
	C601.160583,360.970886 599.856812,362.049225 596.884338,362.019684 
	C583.935486,361.890747 586.147278,363.150574 585.987122,351.666046 
	C585.866272,343.002716 586.068542,334.334595 585.925293,325.671936 
	C585.868530,322.239685 587.142029,321.026917 590.587646,320.941498 
	C600.572144,320.693787 600.565125,320.568970 601.026672,330.766571 
	C601.055786,331.410614 601.217224,332.048676 601.503479,333.885040 
	C605.456787,330.492920 608.855103,327.577057 612.534180,324.423157 
z"/>
<path fill="#333333" opacity="1.000000" stroke="none" 
	d="
M636.542786,374.020142 
	C638.697876,374.570709 640.392029,375.222382 642.144714,375.609680 
	C643.088196,375.818146 644.132385,375.584290 645.130127,375.531494 
	C650.449402,375.250000 655.766663,374.859924 661.088806,374.776489 
	C661.997131,374.762177 662.925964,376.051056 664.014282,376.864136 
	C667.077576,372.062134 672.444824,373.157349 675.871399,374.526367 
	C679.156006,375.838654 681.093506,380.522888 683.935059,384.120361 
	C684.900146,382.233887 686.036194,379.809570 687.354248,377.488586 
	C688.997192,374.595612 691.105835,372.929962 694.689758,374.748596 
	C695.566040,375.193268 697.018005,374.847870 698.087097,374.501312 
	C700.850952,373.605194 703.020691,374.004669 704.329041,376.814697 
	C706.280090,381.005219 708.284241,385.175018 710.069214,389.436005 
	C710.524414,390.522522 710.711975,392.700836 710.196716,393.012512 
	C709.086121,393.684326 707.197815,394.021118 706.055176,393.520142 
	C701.790649,391.650482 697.918762,390.957092 693.514832,393.587128 
	C691.228455,394.952484 688.230652,394.531128 688.530701,390.142822 
	C684.027893,395.601440 681.510254,395.459564 678.382507,389.759369 
	C676.410583,386.165649 674.655945,382.452728 671.974243,378.887634 
	C671.974243,382.623444 671.920898,386.360291 671.992004,390.094788 
	C672.043945,392.826233 670.827087,394.152740 668.094421,393.961578 
	C663.536072,393.642700 658.226929,395.731934 655.324097,389.851440 
	C655.111389,389.420349 651.804138,389.675049 651.604980,390.220428 
	C650.582825,393.019867 648.742554,394.965637 646.119385,393.568268 
	C644.754150,392.840942 644.636414,389.770691 643.956970,387.758118 
	C643.852417,387.448334 643.757568,387.135223 643.753357,387.121948 
	C639.705566,387.804413 635.680176,388.312988 631.758057,389.252563 
	C630.643738,389.519501 629.924561,391.171356 628.852234,391.951752 
	C627.786560,392.727295 626.473083,393.712219 625.327881,393.641296 
	C624.523865,393.591461 623.214111,391.949554 623.175293,390.976929 
	C622.998962,386.559387 622.803894,382.066772 623.474609,377.734161 
	C623.696777,376.298950 626.338562,374.634308 628.146484,374.194580 
	C630.665588,373.581879 633.440735,374.021790 636.542786,374.020142 
z"/>
<path fill="#3FBC9B" opacity="1.000000" stroke="none" 
	d="
M329.939514,326.075623 
	C333.389465,332.971649 336.970917,339.805786 340.255920,346.779510 
	C344.306763,355.379059 348.063171,364.116821 352.041077,372.751434 
	C354.131256,377.288483 356.475922,381.707764 358.600403,386.229706 
	C359.675293,388.517487 360.516296,390.915131 361.668518,393.772644 
	C349.704926,393.772644 338.641235,393.772644 326.988098,393.772644 
	C326.988098,371.720764 326.988098,349.839752 327.234985,327.328979 
	C328.301086,326.491302 329.120300,326.283478 329.939514,326.075623 
z"/>
<path fill="#323232" opacity="1.000000" stroke="none" 
	d="
M417.979828,379.975586 
	C422.494476,372.071625 430.093079,374.129181 437.034760,374.089661 
	C438.666138,374.080353 440.424988,373.796844 441.894409,374.305847 
	C443.401947,374.828003 444.720245,376.063354 445.949097,377.176697 
	C447.202118,378.311981 448.245544,379.678558 449.380737,380.943848 
	C450.591644,379.758667 451.800659,378.571533 453.014099,377.388885 
	C454.128143,376.303101 455.246887,375.222015 456.363525,374.138794 
	C457.231140,375.306793 458.760864,376.428253 458.846924,377.651215 
	C459.149933,381.958984 459.152893,386.316559 458.822296,390.620880 
	C458.734314,391.766235 457.046753,392.788696 456.093628,393.867584 
	C455.073456,392.861786 454.026154,391.881775 453.040070,390.843597 
	C451.869873,389.611572 450.950348,387.593201 449.570923,387.222351 
	C446.692413,386.448578 446.289459,388.740906 445.795288,391.094391 
	C445.559937,392.215210 443.772217,393.740875 442.611389,393.810486 
	C437.479706,394.118134 432.293732,394.277405 427.181915,393.845337 
	C424.567841,393.624420 422.068604,392.044525 420.757019,391.548065 
	C417.262665,392.511627 414.573914,393.831940 411.852478,393.903198 
	C400.116119,394.210632 400.117371,394.077301 399.991089,382.576263 
	C399.976685,381.261688 399.872589,379.948120 399.810059,378.633850 
	C393.087708,379.162933 390.867950,382.734009 391.849915,388.993256 
	C392.222382,391.367432 391.714783,393.785919 388.390533,393.910889 
	C384.781494,394.046509 385.057831,391.471436 385.013519,389.120972 
	C384.988403,387.789124 384.973511,386.455933 385.003448,385.124451 
	C385.062561,382.493805 385.010132,380.150024 381.397980,379.754272 
	C380.540833,379.660400 379.202026,377.643280 379.327789,376.671722 
	C379.453979,375.696625 381.120972,374.188263 382.132111,374.172638 
	C393.452515,373.997986 404.778442,373.953796 416.098877,374.131531 
	C420.084717,374.194061 418.627075,377.071381 417.620178,379.632538 
	C414.087372,380.003906 411.051086,380.003906 408.014801,380.003906 
	C409.810669,381.027771 411.715668,380.634308 413.331177,381.149170 
	C414.684265,381.580444 415.699219,383.072662 416.863892,384.095123 
	C415.635498,385.055115 414.536377,386.437134 413.144562,386.863495 
	C411.565643,387.347137 409.724640,386.975098 407.997589,386.975098 
	C408.004517,387.201813 408.011414,387.428497 408.018341,387.655212 
	C411.224731,387.655212 414.431122,387.655212 417.979828,387.655212 
	C417.979828,384.871582 417.979828,382.423584 417.979828,379.975586 
M427.320923,387.675446 
	C429.783356,387.778442 432.246613,387.865692 434.708038,387.988617 
	C437.442230,388.125122 439.022308,387.251740 439.072540,384.116302 
	C439.127197,380.704224 437.393036,379.831146 434.451630,380.000458 
	C433.137939,380.076050 431.815063,379.976074 430.498505,380.020050 
	C425.139526,380.199127 424.050476,382.234161 427.320923,387.675446 
z"/>
<path fill="#333333" opacity="1.000000" stroke="none" 
	d="
M594.496277,376.394348 
	C600.796692,372.424500 607.561584,374.294922 614.257812,374.286316 
	C613.904724,379.310303 613.904724,379.310303 603.087585,381.031006 
	C604.730469,381.031006 606.382507,380.919373 608.014404,381.053040 
	C612.073730,381.385406 615.075500,382.855713 614.986572,387.678131 
	C614.902405,392.238770 611.964050,393.882111 608.154236,393.873993 
	C603.444214,393.863922 598.735962,392.920105 594.026184,392.913483 
	C589.700378,392.907410 585.360413,393.502106 581.050720,394.028748 
	C576.131348,394.629852 574.763367,392.450806 574.925476,387.763794 
	C575.490845,371.414185 572.249084,374.305115 588.967896,374.059296 
	C590.495117,374.036835 592.033875,374.804718 593.495728,375.858459 
	C591.935608,377.669983 590.602661,379.293762 588.915283,379.858398 
	C587.179077,380.439362 585.097168,379.987335 583.166565,379.987335 
	C584.992798,381.043701 586.896179,380.691193 588.569824,381.159576 
	C589.821167,381.509796 590.776123,382.918762 591.863098,383.856323 
	C590.708069,384.893494 589.707886,386.399750 588.357605,386.845612 
	C586.775085,387.368103 584.887939,386.967804 583.132935,386.967804 
	C587.145447,388.035736 591.060242,388.652130 594.972351,388.635254 
	C598.971313,388.617981 602.967651,387.979523 607.790588,387.537323 
	C593.998901,385.753021 593.156128,385.006042 594.496277,376.394348 
z"/>
<path fill="#323232" opacity="1.000000" stroke="none" 
	d="
M834.987610,380.912659 
	C834.543884,379.829468 833.827637,378.474426 833.708801,378.524902 
	C829.934875,380.128815 825.276611,380.999969 826.810486,387.063721 
	C827.281189,388.924316 826.883545,391.004547 826.883545,392.845490 
	C821.049255,394.757233 820.166504,394.214600 820.013977,388.987946 
	C819.950745,386.824097 820.175659,384.606873 819.751770,382.519043 
	C819.563599,381.592285 817.995972,380.208679 817.226074,380.311920 
	C816.107300,380.462006 814.443665,381.632782 814.252380,382.610870 
	C813.779907,385.026093 814.331787,387.644470 813.840210,390.052185 
	C813.554810,391.449890 812.048523,392.598358 811.091675,393.858978 
	C810.071777,392.675812 808.288269,391.576477 808.147766,390.296783 
	C806.359497,374.004761 806.419495,373.998138 822.496826,373.998535 
	C830.994995,373.998749 839.493164,373.979248 847.991211,374.015961 
	C849.764099,374.023621 851.536011,374.239410 853.577759,374.377533 
	C853.239807,382.884064 846.697815,378.680054 842.861572,380.544891 
	C843.913147,380.729645 844.664368,380.923492 845.425720,380.980072 
	C846.420776,381.054016 847.632812,380.667236 848.377563,381.108948 
	C849.688538,381.886536 850.716187,383.141815 851.862549,384.197052 
	C850.750916,385.118103 849.765381,386.498138 848.496460,386.846893 
	C846.819885,387.307617 844.921326,386.960205 843.071045,387.723022 
	C846.509583,387.945862 849.948120,388.168732 853.435486,388.394745 
	C853.737793,392.509796 852.226379,394.244904 848.594666,393.992950 
	C848.429016,393.981476 848.261536,393.999481 848.094971,393.997009 
	C832.399902,393.764221 835.352478,396.080566 834.987610,380.912659 
z"/>
<path fill="#333333" opacity="1.000000" stroke="none" 
	d="
M720.002686,385.200806 
	C719.971985,387.484009 720.348633,389.453461 719.779175,391.094696 
	C719.372314,392.267487 717.708191,393.711792 716.582886,393.730927 
	C715.430298,393.750549 713.656555,392.404785 713.225708,391.255280 
	C712.619995,389.638977 712.923401,387.650024 712.979431,385.824768 
	C713.077209,382.639343 713.107666,379.744537 708.560364,379.756531 
	C707.754761,379.758667 706.258423,377.795685 706.327637,376.829529 
	C706.397644,375.852325 708.002502,374.205933 708.957092,374.190186 
	C720.264221,374.003571 731.577026,373.988525 742.883179,374.200897 
	C743.899048,374.219971 744.879333,376.135651 745.876099,377.170593 
	C744.826904,378.100342 743.892029,379.596527 742.703613,379.836334 
	C740.545715,380.271759 738.237061,379.959808 735.392822,379.959808 
	C738.595154,382.619354 744.695312,378.267029 744.597229,384.117310 
	C744.507629,389.463104 738.856384,385.629700 735.278198,388.069183 
	C738.401367,388.069183 740.761414,387.722931 742.934509,388.210297 
	C744.079102,388.466980 745.367065,390.063721 745.667664,391.282867 
	C745.822021,391.908630 743.997681,393.742676 742.985779,393.810394 
	C738.681274,394.098480 734.322388,394.176483 730.038574,393.761139 
	C728.922302,393.652863 727.310242,391.578552 727.135132,390.248047 
	C726.710388,387.021515 726.997009,383.701355 726.997009,380.372803 
	C722.695984,379.604370 719.590698,379.588837 720.002686,385.200806 
z"/>
<path fill="#333333" opacity="1.000000" stroke="none" 
	d="
M788.898560,375.949432 
	C790.494934,378.700165 791.894043,381.128693 793.760803,384.369080 
	C795.106079,381.792542 795.788452,379.309937 797.379211,377.759277 
	C799.074646,376.106750 801.629150,375.335571 803.808594,374.179626 
	C804.535767,375.811157 805.733765,377.398529 805.891602,379.083405 
	C806.216309,382.548492 806.264038,386.098938 805.853943,389.546234 
	C805.672363,391.072601 804.100891,392.433624 803.160400,393.869751 
	C802.100525,392.568512 801.014282,391.287262 799.998962,389.952179 
	C799.740417,389.612183 799.706543,389.101349 799.547852,388.600952 
	C793.597412,395.122528 793.314575,395.167114 788.860901,389.943054 
	C788.425781,390.910126 788.279602,392.071899 787.683716,392.389252 
	C786.352234,393.098297 784.702637,393.907837 783.364441,393.666779 
	C782.436279,393.499664 781.241455,391.692596 781.155029,390.543823 
	C780.868469,386.736145 780.916138,382.890839 781.047791,379.067291 
	C781.221313,374.030884 783.921692,372.863586 788.898560,375.949432 
z"/>
<path fill="#113A5C" opacity="1.000000" stroke="none" 
	d="
M879.884644,307.833466 
	C884.092041,304.172913 888.354675,304.500153 892.700867,306.493011 
	C896.915466,308.425507 897.122009,312.152191 897.047241,316.168030 
	C896.905212,323.799225 894.203491,327.264130 887.463013,327.911133 
	C882.467346,328.390656 876.029968,323.705078 875.712524,317.960968 
	C875.533020,314.712769 878.164795,311.309235 879.884644,307.833466 
z"/>
<path fill="#333333" opacity="1.000000" stroke="none" 
	d="
M864.828491,394.000885 
	C854.680908,393.997467 854.680969,393.997467 855.017700,384.161377 
	C855.366943,373.958649 855.366943,373.958649 864.983521,374.000671 
	C871.783936,374.030396 875.911194,377.752838 875.949524,383.891144 
	C875.988098,390.085144 872.048706,393.821503 864.828491,394.000885 
M867.968506,386.594604 
	C867.797302,384.646210 868.202393,382.305847 867.242249,380.894012 
	C866.650696,380.024292 863.486694,379.888519 862.377930,380.681671 
	C861.341309,381.423248 860.895569,383.959839 861.236755,385.469879 
	C862.123352,389.394745 865.006714,387.977509 867.968506,386.594604 
z"/>
<path fill="#333333" opacity="1.000000" stroke="none" 
	d="
M775.385254,374.446320 
	C778.409790,373.750275 779.981934,374.574188 779.966125,377.521698 
	C779.942932,381.841736 780.151428,386.175781 779.839172,390.473175 
	C779.752319,391.668915 778.227112,393.689545 777.274841,393.741577 
	C771.255005,394.070435 765.209595,393.891510 759.175049,394.007233 
	C756.239319,394.063507 754.911865,392.878784 754.992676,389.886963 
	C755.100220,385.901764 754.786926,381.889984 755.151184,377.935394 
	C755.274170,376.599548 756.909790,375.402985 757.854126,374.142792 
	C758.895386,375.471588 760.115845,376.703827 760.904968,378.168457 
	C761.322754,378.943787 760.990540,380.123199 760.997253,381.120209 
	C761.043579,387.989319 761.043579,387.989288 767.387085,388.000763 
	C773.951355,388.012634 773.872742,388.010651 774.043335,381.348694 
	C774.100952,379.099243 774.668030,376.862854 775.385254,374.446320 
z"/>
<path fill="#123B5C" opacity="1.000000" stroke="none" 
	d="
M193.055450,261.795837 
	C190.793289,262.301575 188.745056,262.521515 186.339890,262.897095 
	C181.074158,261.424072 178.880829,257.727356 180.291702,253.055679 
	C181.005402,250.692413 183.731628,247.974396 186.094833,247.281143 
	C190.418915,246.012665 194.190125,247.846817 196.189789,252.382187 
	C197.945343,256.363922 195.765121,258.956787 193.055450,261.795837 
z"/>
<path fill="#333333" opacity="1.000000" stroke="none" 
	d="
M572.430908,374.582581 
	C573.104736,380.452881 573.558472,386.110718 573.542114,391.767181 
	C573.540100,392.474884 571.055847,393.693024 569.719482,393.695953 
	C568.839111,393.697876 567.253845,391.987396 567.192627,390.970917 
	C566.915588,386.367798 566.983765,381.736816 567.093872,377.119812 
	C567.178467,373.572845 569.654419,373.930206 572.430908,374.582581 
z"/>
<path fill="#123B5C" opacity="1.000000" stroke="none" 
	d="
M265.995911,302.767426 
	C264.744843,303.314606 263.651794,303.523621 262.253937,303.881653 
	C261.170959,302.062958 260.392761,300.095276 259.614594,298.127563 
	C261.164917,297.520325 262.990723,296.075226 264.209656,296.475922 
	C266.952881,297.377777 267.645905,299.733887 265.995911,302.767426 
z"/>
<path fill="#123B5C" opacity="1.000000" stroke="none" 
	d="
M330.224609,325.830811 
	C329.120300,326.283478 328.301086,326.491302 327.205261,326.862793 
	C322.768127,326.752502 323.838562,323.611877 324.386322,321.489105 
	C324.641418,320.500458 326.877930,320.023102 328.216309,319.313965 
	C328.980774,321.404633 329.745239,323.495300 330.224609,325.830811 
z"/>
<path fill="#000000" opacity="1.000000" stroke="none" 
	d="
M487.081665,350.102051 
	C489.433777,345.609863 491.927734,341.281036 494.815247,336.269257 
	C498.052063,341.203033 500.593079,345.076202 503.991730,350.256653 
	C497.983521,350.256653 493.139709,350.256653 487.910767,350.415985 
	C487.525665,350.575317 487.223511,350.265472 487.081665,350.102051 
z"/>
<path fill="#000000" opacity="1.000000" stroke="none" 
	d="
M537.554382,381.274963 
	C537.667542,383.476624 538.093445,386.632446 537.195251,387.069916 
	C535.360657,387.963531 532.638733,387.897736 530.638855,387.201996 
	C529.729797,386.885803 528.861877,383.803284 529.372742,382.541290 
	C531.024414,378.460907 534.273010,379.791107 537.554382,381.274963 
z"/>
<path fill="#000000" opacity="1.000000" stroke="none" 
	d="
M491.397278,380.085815 
	C495.045532,379.795349 498.074127,380.194153 497.756836,384.419800 
	C497.458527,388.391510 494.246918,388.314178 491.456909,387.789490 
	C490.294678,387.570923 488.396606,385.926636 488.522003,385.238434 
	C488.848450,383.447357 490.109741,381.826660 491.397278,380.085815 
z"/>
<path fill="#000000" opacity="1.000000" stroke="none" 
	d="
M426.955902,387.477722 
	C424.050476,382.234161 425.139526,380.199127 430.498505,380.020050 
	C431.815063,379.976074 433.137939,380.076050 434.451630,380.000458 
	C437.393036,379.831146 439.127197,380.704224 439.072540,384.116302 
	C439.022308,387.251740 437.442230,388.125122 434.708038,387.988617 
	C432.246613,387.865692 429.783356,387.778442 426.955902,387.477722 
z"/>
<path fill="#000000" opacity="1.000000" stroke="none" 
	d="
M417.992706,379.989380 
	C417.979828,382.423584 417.979828,384.871582 417.979828,387.655212 
	C414.431122,387.655212 411.224731,387.655212 408.018341,387.655212 
	C408.011414,387.428497 408.004517,387.201813 407.997589,386.975098 
	C409.724640,386.975098 411.565643,387.347137 413.144562,386.863495 
	C414.536377,386.437134 415.635498,385.055115 416.863892,384.095123 
	C415.699219,383.072662 414.684265,381.580444 413.331177,381.149170 
	C411.715668,380.634308 409.810669,381.027771 408.014801,380.003906 
	C411.051086,380.003906 414.087372,380.003906 417.578125,380.016907 
	C418.032623,380.029877 418.005585,380.003174 417.992706,379.989380 
z"/>
<path fill="#000000" opacity="1.000000" stroke="none" 
	d="
M594.340332,376.271271 
	C593.156128,385.006042 593.998901,385.753021 607.790588,387.537323 
	C602.967651,387.979523 598.971313,388.617981 594.972351,388.635254 
	C591.060242,388.652130 587.145447,388.035736 583.132935,386.967804 
	C584.887939,386.967804 586.775085,387.368103 588.357605,386.845612 
	C589.707886,386.399750 590.708069,384.893494 591.863098,383.856323 
	C590.776123,382.918762 589.821167,381.509796 588.569824,381.159576 
	C586.896179,380.691193 584.992798,381.043701 583.166565,379.987335 
	C585.097168,379.987335 587.179077,380.439362 588.915283,379.858398 
	C590.602661,379.293762 591.935608,377.669983 593.647156,376.208221 
	C593.870117,375.905121 594.184448,376.148193 594.340332,376.271271 
z"/>
<path fill="#000000" opacity="1.000000" stroke="none" 
	d="
M867.729797,386.914032 
	C865.006714,387.977509 862.123352,389.394745 861.236755,385.469879 
	C860.895569,383.959839 861.341309,381.423248 862.377930,380.681671 
	C863.486694,379.888519 866.650696,380.024292 867.242249,380.894012 
	C868.202393,382.305847 867.797302,384.646210 867.729797,386.914032 
z"/>
</svg>